<svg xmlns="http://www.w3.org/2000/svg" width="139" height="140" viewBox="0 0 139 140" fill="none">
    <path d="M41.4141 73.1998L78.2715 97.4835V48.9062L41.4141 73.1998Z" fill="#D9D8D7" />
    <path d="M115.128 73.1998L78.2715 97.4835V48.9062L115.128 73.1998Z" fill="#E6E5E5" />
    <path d="M78.2732 48.9053L41.4138 73.1989L21.2012 59.8827L58.0592 35.5977L78.2732 48.9053Z"
        fill="#EFEFEF" />
    <path d="M78.2754 48.9034L115.13 73.1988L135.342 59.8786L98.4822 35.5957L78.2754 48.9034Z"
        fill="#EFEFEF" />
    <path d="M78.2722 73.1953L46.2031 94.3326L78.2722 115.461L110.341 94.3326L78.2722 73.1953Z"
        fill="#CCCBCA" />
    <path d="M41.4141 73.1992V115.713L78.2715 140V97.4829L41.4141 73.1992Z" fill="#f2b080" />
    <path d="M115.128 73.1992V115.713L78.2715 140V97.4829L115.128 73.1992Z" fill="#f2a772" />
    <path d="M115.128 73.1992V115.713L90.126 132.188L78.2715 97.4829L115.128 73.1992Z"
        fill="#fd7210" />
    <path d="M135.342 86.5099L98.4825 110.803L78.2734 97.4829L115.13 73.1992L135.342 86.5099Z"
        fill="#EFEFEF" />
    <path d="M21.2012 86.5099L58.0592 110.803L78.2732 97.4829L41.4138 73.1992L21.2012 86.5099Z"
        fill="#EFEFEF" />
    <path
        d="M19.1643 46.9222C13.9114 46.9222 9.65175 51.1438 9.65175 56.3268C9.65175 51.1441 5.39124 46.9222 0.140625 46.9222C5.39124 46.9222 9.65175 42.6984 9.65175 37.5176C9.65258 42.6992 13.9117 46.9222 19.1643 46.9222Z"
        fill="#D9D8D7" />
    <path
        d="M105.614 8.46371C100.888 8.46371 97.0536 12.2626 97.0536 16.9274C97.0536 12.262 93.2166 8.46371 88.4922 8.46371C93.2166 8.46371 97.0536 4.66266 97.0536 0C97.0536 4.66348 100.888 8.46371 105.614 8.46371Z"
        fill="#D9D8D7" />
    <path
        d="M85.5146 35.5987C82.7581 35.5987 80.5196 37.8114 80.5196 40.5351C80.5196 37.8114 78.2832 35.5987 75.5254 35.5987C78.2832 35.5987 80.5196 33.3817 80.5196 30.6602C80.5196 33.382 82.7581 35.5987 85.5146 35.5987Z"
        fill="#D9D8D7" />
    <path
        d="M119.047 28.5449C117.079 28.5449 115.481 30.127 115.481 32.0723C115.481 30.127 113.884 28.5449 111.914 28.5449C113.884 28.5449 115.481 26.9609 115.481 25.0176C115.481 26.9614 117.079 28.5449 119.047 28.5449Z"
        fill="#D9D8D7" />
</svg>