<svg width="20" height="20" viewBox="0 0 20 20" fill="none" xmlns="http://www.w3.org/2000/svg">
<path d="M12.2923 15.8333C12.2923 17.1 11.2673 18.125 10.0007 18.125C8.73398 18.125 7.70898 17.1 7.70898 15.8333C7.70898 14.5667 8.73398 13.5417 10.0007 13.5417C11.2673 13.5417 12.2923 14.5667 12.2923 15.8333ZM8.95898 15.8333C8.95898 16.4083 9.42565 16.875 10.0007 16.875C10.5757 16.875 11.0423 16.4083 11.0423 15.8333C11.0423 15.2583 10.5757 14.7917 10.0007 14.7917C9.42565 14.7917 8.95898 15.2583 8.95898 15.8333Z" fill="currentColor"/>
<path d="M12.2923 4.16732C12.2923 5.43398 11.2673 6.45898 10.0007 6.45898C8.73398 6.45898 7.70898 5.43398 7.70898 4.16732C7.70898 2.90065 8.73398 1.87565 10.0007 1.87565C11.2673 1.87565 12.2923 2.90065 12.2923 4.16732ZM8.95898 4.16732C8.95898 4.74232 9.42565 5.20898 10.0007 5.20898C10.5757 5.20898 11.0423 4.74232 11.0423 4.16732C11.0423 3.59232 10.5757 3.12565 10.0007 3.12565C9.42565 3.12565 8.95898 3.59232 8.95898 4.16732Z" fill="currentColor"/>
<path d="M12.2923 9.99935C12.2923 11.266 11.2673 12.291 10.0007 12.291C8.73398 12.291 7.70898 11.266 7.70898 9.99935C7.70898 8.73268 8.73398 7.70768 10.0007 7.70768C11.2673 7.70768 12.2923 8.73268 12.2923 9.99935ZM8.95898 9.99935C8.95898 10.5743 9.42565 11.041 10.0007 11.041C10.5757 11.041 11.0423 10.5743 11.0423 9.99935C11.0423 9.42435 10.5757 8.95768 10.0007 8.95768C9.42565 8.95768 8.95898 9.42435 8.95898 9.99935Z" fill="currentColor"/>
</svg>
